<svg width="200" height="73" viewBox="0 0 200 73" fill="none" xmlns="http://www.w3.org/2000/svg">
<path fill-rule="evenodd" clip-rule="evenodd" d="M41.4064 24.2368C41.8034 24.2368 42.1806 24.2567 42.5578 24.2964C42.0218 18.816 37.3962 14.527 31.7582 14.527H13.9903V53.3863H23.6385V24.2368H41.4064Z" fill="#2987FF"/>
<path fill-rule="evenodd" clip-rule="evenodd" d="M48.0768 43.6566C50.6179 41.671 52.2656 38.5734 52.2656 35.0786C52.2656 29.479 48.0172 24.8525 42.5578 24.2766C42.5975 24.634 42.6174 24.9914 42.6174 25.3489C42.6174 28.8238 40.9697 31.9413 38.4286 33.9269C40.9697 35.9126 42.6174 39.0102 42.6174 42.505C42.6174 48.5017 37.7536 53.3665 31.7582 53.3665H31.6986H23.6386V63.0764H41.3667H41.4263C47.4217 63.0764 52.2855 58.2115 52.2855 52.2148C52.2656 48.7598 50.6179 45.6423 48.0768 43.6566" fill="#FF7485"/>
<path fill-rule="evenodd" clip-rule="evenodd" d="M42.6174 42.5247C42.6174 39.0498 40.9696 35.9323 38.4285 33.9467C40.9696 31.961 42.6174 28.8634 42.6174 25.3686C42.6174 25.0112 42.5975 24.6339 42.5578 24.2964C42.1806 24.2567 41.7836 24.2368 41.4064 24.2368H23.6385V53.3664H31.7184C31.7184 53.3863 31.7383 53.3863 31.7582 53.3863C37.7536 53.3863 42.6174 48.5214 42.6174 42.5247Z" fill="#132193"/>
<path fill-rule="evenodd" clip-rule="evenodd" d="M67.6689 44.5709V24.1757H75.7331C77.4865 24.1757 78.9392 24.7263 80.1419 25.7804C81.3446 26.8311 81.946 28.2365 81.946 29.8885C81.946 31.5912 81.2939 32.9459 79.9933 33.9493C80.8446 34.4493 81.4967 35.0507 81.9967 35.8547C82.4967 36.6554 82.6993 37.5574 82.6993 38.6115C82.6993 40.3142 82.098 41.7669 80.848 42.8716C79.6453 43.9729 78.0946 44.5236 76.3412 44.5236H67.6689V44.5709ZM71.6757 32.4425H75.6825C76.3345 32.4425 76.8345 32.2432 77.2365 31.7905C77.6385 31.3412 77.8885 30.8378 77.8885 30.1858C77.8885 29.5338 77.6892 28.9831 77.2872 28.5811C76.8852 28.179 76.3345 27.929 75.7331 27.929H71.6757V32.4425ZM71.6757 40.8108H76.2838C76.9865 40.8108 77.5372 40.5608 77.9865 40.1081C78.4358 39.6554 78.6385 39.0574 78.6385 38.3547C78.6385 37.652 78.4392 37.1013 77.9865 36.652C77.5372 36.2027 76.9865 35.9493 76.2838 35.9493H71.6757V40.8108V40.8108Z" fill="white"/>
<path fill-rule="evenodd" clip-rule="evenodd" d="M85.598 41.2128C84.8953 40.0101 84.598 38.7567 84.598 37.304C84.598 35.902 84.9493 34.598 85.598 33.3953C86.3007 32.1926 87.1993 31.2905 88.402 30.6385C89.5541 29.9865 90.8547 29.6351 92.2568 29.6351C93.6588 29.6351 94.9628 29.9865 96.1622 30.6385C97.3649 31.2905 98.2669 32.2432 98.9662 33.3953C99.6689 34.598 100.017 35.8513 100.017 37.304C100.017 38.7061 99.6655 40.0101 98.9662 41.2128C98.2635 42.4155 97.3649 43.3176 96.1622 43.9696C94.9595 44.6216 93.7095 44.973 92.2568 44.973C90.8547 44.973 89.5507 44.6216 88.402 43.9696C87.1993 43.3176 86.25 42.3649 85.598 41.2128ZM89.4527 34.3986C88.7027 35.1486 88.3514 36.1013 88.3514 37.304C88.3514 38.5067 88.7027 39.4088 89.4527 40.2095C90.2027 40.9594 91.1554 41.3615 92.2568 41.3615C93.4088 41.3615 94.3615 40.9594 95.1115 40.2095C95.8615 39.4595 96.2635 38.5067 96.2635 37.304C96.2635 36.152 95.8615 35.1486 95.1115 34.3986C94.3615 33.6486 93.4088 33.2466 92.2568 33.2466C91.1047 33.2973 90.2061 33.6453 89.4527 34.3986Z" fill="white"/>
<path fill-rule="evenodd" clip-rule="evenodd" d="M102.875 41.2128C102.172 40.0101 101.875 38.7567 101.875 37.304C101.875 35.902 102.226 34.598 102.875 33.3953C103.527 32.1926 104.476 31.2905 105.679 30.6385C106.831 29.9865 108.132 29.6351 109.534 29.6351C110.936 29.6351 112.24 29.9865 113.439 30.6385C114.642 31.2905 115.544 32.2432 116.243 33.3953C116.946 34.598 117.294 35.8513 117.294 37.304C117.294 38.7061 116.943 40.0101 116.243 41.2128C115.541 42.4155 114.642 43.3176 113.439 43.9696C112.237 44.6216 110.987 44.973 109.534 44.973C108.132 44.973 106.828 44.6216 105.679 43.9696C104.48 43.3176 103.527 42.3649 102.875 41.2128ZM106.682 34.3986C105.932 35.1486 105.581 36.1013 105.581 37.304C105.581 38.5067 105.932 39.4088 106.682 40.2095C107.432 40.9594 108.385 41.3615 109.487 41.3615C110.639 41.3615 111.591 40.9594 112.341 40.2095C113.091 39.4595 113.493 38.5067 113.493 37.304C113.493 36.152 113.091 35.1486 112.341 34.3986C111.591 33.6486 110.639 33.2466 109.487 33.2466C108.385 33.2973 107.432 33.6453 106.682 34.3986Z" fill="white"/>
<path d="M123.608 23.3243H119.851V44.571H123.608V23.3243Z" fill="white"/>
<path fill-rule="evenodd" clip-rule="evenodd" d="M126.264 37.3041C126.264 35.098 126.966 33.2939 128.416 31.7906C129.868 30.3379 131.672 29.5845 133.926 29.5845C135.328 29.5845 136.581 29.9358 137.733 30.6351C138.885 31.3379 139.736 32.2399 140.338 33.4426C140.939 34.5946 141.291 35.8987 141.291 37.3007C141.291 37.8007 141.24 38.3041 141.142 38.8547H130.169C130.419 39.7568 130.919 40.4595 131.622 40.9088C132.324 41.3615 133.223 41.5608 134.277 41.5608C134.98 41.5608 135.628 41.4088 136.179 41.1588C136.73 40.9088 137.179 40.5574 137.53 40.1081L140.534 41.8615C139.831 42.8649 138.98 43.6149 137.878 44.1656C136.828 44.7162 135.574 44.9662 134.172 44.9662C132.97 44.9662 131.868 44.7669 130.868 44.3649C129.868 43.9628 129.017 43.4122 128.365 42.7601C127.662 42.0574 127.162 41.2568 126.764 40.3041C126.463 39.4088 126.264 38.3581 126.264 37.3041ZM130.118 35.9527H137.53C137.331 35 136.878 34.25 136.179 33.7466C135.527 33.2466 134.777 33.0439 133.875 33.0439C132.875 33.0439 132.071 33.2939 131.372 33.7939C130.77 34.2973 130.372 35 130.118 35.9527Z" fill="white"/>
<path fill-rule="evenodd" clip-rule="evenodd" d="M145.095 42.7668C143.693 41.2634 143.041 39.4594 143.041 37.304C143.041 35.1486 143.743 33.3445 145.095 31.8411C146.497 30.3378 148.149 29.5878 150.101 29.5878C152.105 29.5878 153.706 30.2905 154.858 31.7432V30.0405H158.615V44.5709H154.858V42.8682C153.706 44.2702 152.152 45.0236 150.101 45.0236C148.149 44.9695 146.497 44.2702 145.095 42.7668ZM147.899 34.3479C147.149 35.0979 146.747 36.1013 146.747 37.304C146.747 38.5067 147.149 39.5101 147.899 40.2601C148.649 41.0101 149.601 41.4121 150.753 41.4121C151.905 41.4121 152.905 41.0101 153.659 40.2601C154.409 39.5101 154.811 38.5067 154.811 37.304C154.811 36.1013 154.409 35.0979 153.659 34.3479C152.909 33.5979 151.905 33.1959 150.753 33.1959C149.652 33.1959 148.699 33.5945 147.899 34.3479Z" fill="white"/>
<path fill-rule="evenodd" clip-rule="evenodd" d="M162.02 44.5709V30.0372H165.777V31.6892C166.226 31.0372 166.777 30.5372 167.53 30.1858C168.28 29.8345 169.132 29.6351 170.084 29.6351C171.686 29.6351 172.99 30.1858 174.041 31.2399C175.091 32.2939 175.595 33.7973 175.595 35.6486V44.5676H171.838V36.1013C171.838 35.1486 171.588 34.3986 171.037 33.8953C170.537 33.3953 169.834 33.1453 168.932 33.1453C167.98 33.1453 167.179 33.4459 166.628 34.0473C166.027 34.6486 165.777 35.5507 165.777 36.7534V44.6216H162.02V44.5709Z" fill="white"/>
<path d="M131.574 54.9528C131.044 54.9528 130.615 55.1352 130.291 55.5C129.963 55.8582 129.801 56.3075 129.801 56.848C129.801 57.3886 129.963 57.8379 130.291 58.2028C130.618 58.5609 131.044 58.7433 131.574 58.7433C132.098 58.7433 132.524 58.5642 132.851 58.2095C133.182 57.8514 133.348 57.3953 133.348 56.848C133.348 56.3007 133.182 55.848 132.851 55.4933C132.527 55.1352 132.101 54.9528 131.574 54.9528ZM135.101 53.4156V60.2906H133.294V59.5305C132.787 60.1555 132.101 60.4663 131.236 60.4663C130.291 60.4663 129.497 60.1217 128.858 59.4291C128.223 58.7399 127.909 57.8784 127.909 56.848C127.909 55.8176 128.226 54.9561 128.858 54.2669C129.497 53.5778 130.287 53.2298 131.236 53.2298C132.098 53.2298 132.784 53.544 133.294 54.1723V53.4122H135.101V53.4156ZM124.615 50.321C124.841 50.0879 125.122 49.973 125.453 49.973C125.784 49.973 126.064 50.0879 126.291 50.321C126.524 50.5473 126.638 50.8278 126.638 51.1656C126.638 51.4967 126.524 51.7771 126.297 52.0034C126.071 52.2298 125.787 52.3446 125.453 52.3446C125.122 52.3446 124.841 52.2298 124.615 52.0034C124.388 51.7771 124.274 51.4967 124.274 51.1656C124.274 50.8311 124.388 50.5473 124.615 50.321ZM126.388 53.4156V60.2906H124.537V53.4156H126.388V53.4156ZM119.939 53.2298C120.747 53.2298 121.402 53.4764 121.899 53.973C122.399 54.4663 122.652 55.1115 122.652 55.9088V60.2872H120.807V56.5068C120.807 56.0136 120.689 55.6352 120.453 55.3717C120.216 55.1014 119.888 54.9663 119.466 54.9663C119.044 54.9663 118.696 55.1014 118.422 55.3717C118.149 55.6419 118.01 56.0237 118.01 56.5203V60.2872H116.159V56.5068C116.159 56.0136 116.041 55.6352 115.804 55.3717C115.571 55.1014 115.243 54.9663 114.818 54.9663C114.395 54.9663 114.051 55.1014 113.774 55.3717C113.5 55.6419 113.361 56.0237 113.361 56.5203V60.2872H111.51V53.4122H113.311V54.2196C113.757 53.5575 114.429 53.2264 115.331 53.2264C115.824 53.2264 116.267 53.3311 116.659 53.5372C117.057 53.7467 117.372 54.0338 117.601 54.4021C118.084 53.6217 118.861 53.2298 119.939 53.2298ZM106.649 54.8278C106.223 54.8278 105.882 54.9494 105.618 55.1892C105.358 55.4291 105.186 55.7703 105.101 56.2028H108.145C108.061 55.7636 107.888 55.4257 107.628 55.1892C107.372 54.946 107.047 54.8278 106.649 54.8278ZM106.662 53.2298C107.652 53.2298 108.453 53.5642 109.068 54.2298C109.686 54.8953 110 55.7669 110.003 56.8413C110.003 57.0811 109.99 57.2906 109.966 57.4663H105.091C105.186 57.9426 105.388 58.3007 105.703 58.5372C106.013 58.7737 106.402 58.8919 106.858 58.8919C107.155 58.8919 107.459 58.8345 107.767 58.723C108.074 58.6048 108.351 58.4426 108.598 58.2332L109.682 59.4257C108.926 60.1217 107.949 60.4696 106.753 60.4696C105.693 60.4696 104.834 60.1419 104.172 59.4832C103.513 58.821 103.186 57.9494 103.186 56.8717C103.186 55.7872 103.507 54.9122 104.152 54.2399C104.797 53.5676 105.632 53.2298 106.662 53.2298ZM98.1385 54.9528C97.6081 54.9528 97.179 55.1352 96.8547 55.5C96.527 55.8582 96.3648 56.3075 96.3648 56.848C96.3648 57.3886 96.527 57.8379 96.8547 58.2028C97.1824 58.5609 97.6081 58.7433 98.1385 58.7433C98.6621 58.7433 99.0878 58.5642 99.4155 58.2095C99.7466 57.8514 99.9121 57.3953 99.9121 56.848C99.9121 56.3007 99.7466 55.848 99.4155 55.4933C99.0912 55.1352 98.6655 54.9528 98.1385 54.9528ZM97.7973 53.2298C98.6486 53.2298 99.3209 53.5305 99.8175 54.1318V50.0744H101.662V60.2906H99.8547V59.5305C99.348 60.1555 98.6621 60.4663 97.7973 60.4663C96.8513 60.4663 96.0574 60.1217 95.4189 59.4291C94.7838 58.7399 94.4696 57.8784 94.4696 56.848C94.4696 55.8176 94.7871 54.9561 95.4189 54.2669C96.0608 53.5744 96.8513 53.2298 97.7973 53.2298ZM89.4223 54.9528C88.8919 54.9528 88.4628 55.1352 88.1385 55.5C87.8108 55.8582 87.6486 56.3075 87.6486 56.848C87.6486 57.3886 87.8108 57.8379 88.1385 58.2028C88.4662 58.5609 88.8919 58.7433 89.4223 58.7433C89.9459 58.7433 90.3716 58.5642 90.6993 58.2095C91.0304 57.8514 91.1959 57.3953 91.1959 56.848C91.1959 56.3007 91.0304 55.848 90.6993 55.4933C90.375 55.1352 89.9493 54.9528 89.4223 54.9528ZM92.9493 53.4156V60.2906H91.1419V59.5305C90.6351 60.1555 89.9493 60.4663 89.0844 60.4663C88.1385 60.4663 87.348 60.1217 86.7094 59.4291C86.0743 58.7399 85.7601 57.8784 85.7601 56.848C85.7601 55.8176 86.0777 54.9561 86.7094 54.2669C87.348 53.5778 88.1385 53.2298 89.0844 53.2298C89.9459 53.2298 90.6317 53.544 91.1419 54.1723V53.4122H92.9493V53.4156ZM82.2263 53.2298C82.7973 53.2298 83.3209 53.3446 83.7939 53.571C84.2669 53.794 84.6621 54.1115 84.9797 54.5305L83.6453 55.6453C83.2162 55.1859 82.7263 54.9561 82.1757 54.9561C81.6892 54.9561 81.2804 55.1318 80.9493 55.4798C80.6182 55.8311 80.4527 56.2872 80.4527 56.848C80.4527 57.4088 80.6148 57.8683 80.9425 58.2163C81.2736 58.5676 81.6824 58.7399 82.1689 58.7399C82.7398 58.7399 83.2398 58.5068 83.6655 58.044L84.9865 59.1723C84.3142 60.0338 83.3953 60.4629 82.2263 60.4629C81.1385 60.4629 80.2567 60.1251 79.5811 59.4494C78.9054 58.7669 78.5675 57.8987 78.5675 56.8446C78.5675 55.794 78.9054 54.9291 79.5811 54.2467C80.2534 53.571 81.1385 53.2298 82.2263 53.2298ZM72.9358 52.3142L71.4966 56.1521H74.3716L72.9358 52.3142ZM74.1621 50.3582L78.027 60.2906H75.9121L75.0473 57.9764H70.8108L69.9459 60.2906H67.8817L71.75 50.3582H74.1621Z" fill="white"/>
</svg>
